<?xml version="1.0" standalone="no"?>
<!DOCTYPE svg PUBLIC "-//W3C//DTD SVG 20010904//EN"
 "http://www.w3.org/TR/2001/REC-SVG-20010904/DTD/svg10.dtd">
<svg version="1.0" xmlns="http://www.w3.org/2000/svg"
 width="1280.000000pt" height="1250.000000pt" viewBox="0 0 1280.000000 1250.000000"
 preserveAspectRatio="xMidYMid meet">
<metadata>
Created by potrace 1.15, written by Peter Selinger 2001-2017
</metadata>
<g transform="translate(0.000000,1250.000000) scale(0.100000,-0.100000)"
fill="#000000" stroke="none">
<path d="M8035 12494 c-223 -32 -374 -75 -532 -150 -208 -99 -432 -282 -569
-464 -70 -92 -171 -286 -204 -390 -91 -292 -75 -581 49 -846 51 -109 109 -191
200 -287 534 -562 1525 -513 2105 103 130 139 249 338 305 509 44 136 56 218
55 386 -1 138 -4 173 -26 256 -90 336 -300 591 -613 744 -200 98 -353 134
-585 140 -85 2 -168 1 -185 -1z"/>
<path d="M5107 10060 c-686 -44 -1318 -338 -1870 -869 -147 -142 -309 -320
-302 -331 8 -12 883 -760 890 -760 3 0 68 65 145 144 77 79 172 170 210 202
574 478 1138 552 2012 264 225 -73 300 -104 287 -117 -8 -8 -1 -53 24 -160
193 -808 231 -1592 111 -2303 -250 -1486 -1252 -2568 -2534 -2736 -178 -23
-535 -15 -710 16 -504 89 -1005 347 -1387 713 l-52 50 -247 -254 c-137 -140
-324 -331 -417 -425 l-169 -171 108 -98 c779 -703 1703 -1060 2669 -1032 564
17 1074 146 1585 402 374 188 680 408 999 720 356 349 623 716 868 1195 l48
95 63 22 c294 105 705 94 1102 -28 402 -123 804 -349 1197 -673 139 -116 422
-399 544 -546 262 -315 454 -611 625 -965 216 -449 341 -876 401 -1375 20
-169 24 -668 6 -810 -6 -47 -11 -86 -10 -87 4 -4 1171 -142 1174 -139 2 2 11
73 19 157 33 332 18 842 -36 1208 -117 784 -427 1577 -886 2263 -909 1358
-2326 2239 -3620 2251 -96 1 -174 6 -174 10 0 5 9 65 19 135 84 544 93 1089
30 1687 -11 105 -24 216 -30 249 -6 32 -8 60 -6 63 3 2 80 -28 171 -67 712
-304 1231 -460 1786 -535 158 -22 602 -31 766 -16 817 75 1506 394 2247 1043
l38 33 -208 226 c-114 124 -295 320 -402 436 l-193 211 -107 -92 c-582 -501
-1191 -726 -1839 -678 -369 28 -739 118 -1207 294 -218 83 -475 192 -965 413
-711 321 -952 420 -1315 540 -536 178 -1021 253 -1458 225z"/>
<path d="M995 8549 c-506 -462 -937 -856 -959 -876 -21 -19 -34 -38 -29 -42 5
-3 566 -618 1247 -1366 681 -748 1246 -1368 1255 -1378 19 -19 -76 -103 1339
1187 l603 548 -43 49 c-164 188 -2475 2717 -2483 2718 -5 0 -424 -378 -930
-840z"/>
</g>
</svg>
